# xmcd
#
# Track frame offsets:
#	182
#	12217
#	21507
#	26492
#	41865
#	59467
#	75420
#	94952
#	111082
#	116495
#	128410
#	131570
#	146882
#	159580
#	160955
#	180900
#	195867
#	209645
#	210405
#	221120
#	233912
#	246065
#	262630
#
# Disc length: 3524 seconds
#
# Revision: 3
# Processed by: cddbd v1.5.2PL0 Copyright (c) Steve Scherf et al.
# Submitted via: audiograbber 1.83.01
#
DISCID=3b0dc217
DTITLE=Various Artist - Songs From Chippy
DYEAR=1994
DGENRE=Country
TTITLE0=Joe Ely - Goodnight Dear Diary
TTITLE1=Jo Carol Pierce - Across The Great Divide
TTITLE2=Jo Harvey Allen - Chippy Narration
TTITLE3=Joe Ely - Buildin' More Fires
TTITLE4=Butch Hancock - Wind's Gonna Blow You Away
TTITLE5=Terry Allen - Gonna California
TTITLE6=Wayne Hancock - Thunderstorms and Neon Signs
TTITLE7=Joe Ely and Terry Allen - Fate With A Capital F
TTITLE8=Jo Harvey Allen - The Way I Was Raised
TTITLE9=Joe Ely and Jo Harvey Allen - Cup Of Tea
TTITLE10=Jo Carol Pierce - Tongues
TTITLE11=Butch Hancock - Low Lights Of Town
TTITLE12=Jo Carol Pierce - I Blame God
TTITLE13=Jo Harvey Allen and Joe Ely - Oil Wells
TTITLE14=Joe Ely - Cold Black Hammer
TTITLE15=Butch Hancock and Terry Allen and Jo Carol Pierce and Joe Ely - Boomtown Boo
TTITLE15=gie
TTITLE16=Wayne Hancock - Back To Black
TTITLE17=Jo Harvey Allen and Barry Tubb - Just Dancin'
TTITLE18=Joe Ely - Whiskey And Women And Money To Burn
TTITLE19=Robert Earl Keen and  Butch Hancock - Morning Goodness
TTITLE20=Terry Allen - Angels Of The Wind
TTITLE21=Butch Hancock - Roll Around
TTITLE22=Joe Ely - Goodnight
EXTD=
EXTT0=
EXTT1=
EXTT2=
EXTT3=
EXTT4=
EXTT5=
EXTT6=
EXTT7=
EXTT8=
EXTT9=
EXTT10=
EXTT11=
EXTT12=
EXTT13=
EXTT14=
EXTT15=
EXTT16=
EXTT17=
EXTT18=
EXTT19=
EXTT20=
EXTT21=
EXTT22=
PLAYORDER=
